<svg xmlns="http://www.w3.org/2000/svg" viewBox="0 0 24 24" width="48"><path d="M19.077 4.928c-2.082-2.083-4.922-3.134-7.904-2.894-4.009.322-7.523 3.11-8.699 6.956-.84 2.748-.487 5.617.881 7.987L2.059 21.28a.551.551 0 00.67.691l4.504-1.207a9.98 9.98 0 004.773 1.216h.004c4.195 0 8.071-2.566 9.412-6.541 1.306-3.876.34-7.823-2.345-10.511zm-2.179 10.626c-.208.583-1.227 1.145-1.685 1.186-.458.042-.887.207-2.995-.624-2.537-1-4.139-3.601-4.263-3.767-.125-.167-1.019-1.353-1.019-2.581s.645-1.832.874-2.081a.916.916 0 01.666-.312c.166 0 .333 0 .478.006.178.007.375.016.562.431.222.494.707 1.728.769 1.853s.104.271.021.437-.125.27-.249.416c-.125.146-.262.325-.374.437-.125.124-.255.26-.11.509.146.25.646 1.067 1.388 1.728.954.85 1.757 1.113 2.007 1.239.25.125.395.104.541-.063.146-.166.624-.728.79-.978s.333-.208.562-.125 1.456.687 1.705.812c.25.125.416.187.478.291.062.103.062.603-.146 1.186z"/></svg>